<svg version="1.2" baseProfile="tiny-ps" xmlns="http://www.w3.org/2000/svg" viewBox="0 0 80 96" width="80" height="96">
	<title>ACTIVITY</title>
	<style>
		tspan { white-space:pre }
		.shp0 { fill-opacity: 0.251;fill: #000000 } 
	</style>
	<g id="ACTIVITY">
		<g id="CONTENT">
			<g id="NAV">
				<g id="ICONS">
					<path id="USER" fill-rule="evenodd" class="shp0" d="M80 72C80 73.45 79.79 74.86 79.38 76.24C79.79 76.53 80 76.83 80 77.14C80 77.59 79.55 78.03 78.71 78.44C79.55 79.92 80 81.24 80 82.29C80 88.91 62.09 96 40 96C17.91 96 0 88.91 0 82.29C0 81.24 0.45 79.92 1.29 78.44C0.45 78.03 0 77.59 0 77.14C0 76.83 0.21 76.53 0.62 76.24C0.21 74.86 0 73.45 0 72C0 70.55 0.21 69.14 0.62 67.76C0.21 67.47 0 67.17 0 66.86C0 66.51 0.26 66.17 0.77 65.85C0.27 64.54 0 63.15 0 61.71C0 54.14 7.46 48 16.67 48C22.12 48 26.96 50.16 30 53.49C32.79 54.35 36.25 54.86 40 54.86C43.75 54.86 47.21 54.35 50 53.49C53.04 50.16 57.88 48 63.33 48C72.54 48 80 54.14 80 61.71C80 63.15 79.73 64.54 79.23 65.85C79.73 66.17 80 66.51 80 66.86C80 67.17 79.79 67.47 79.38 67.76C79.79 69.14 80 70.55 80 72ZM40 0C52.89 0 63.33 10.74 63.33 24C63.33 37.25 52.89 48 40 48C27.11 48 16.67 37.25 16.67 24C16.67 10.74 27.11 0 40 0Z" />
				</g>
			</g>
		</g>
	</g>
</svg>