<svg version="1.2" baseProfile="tiny-ps" xmlns="http://www.w3.org/2000/svg" viewBox="0 0 60 60" width="60" height="60">
	<title>ACCOUNT</title>
	<style>
		tspan { white-space:pre }
		.shp0 { fill: #ffffff } 
	</style>
	<g id="ACCOUNT">
		<g id="CONTENT">
			<g id="STATS">
				<g id="INCOME">
					<g id="PROGRESS BAR">
						<path id="CLOCK" class="shp0" d="M30 9.48C39.05 9.48 46.4 16.84 46.4 25.87C46.4 34.92 39.05 42.27 30 42.27C20.96 42.27 13.6 34.92 13.6 25.87C13.6 16.84 20.96 9.48 30 9.48M30 3.87C17.85 3.87 8 13.73 8 25.87C8 38.02 17.85 47.87 30 47.87C42.15 47.87 52 38.02 52 25.87C52 13.73 42.15 3.87 30 3.87L30 3.87ZM32 27.87L28 27.87L28 11.87L32 11.87L32 27.87ZM40 27.87L31.09 27.87L31.09 23.81L40 23.81L40 27.87Z" />
					</g>
				</g>
			</g>
		</g>
	</g>
</svg>