<svg version="1.2" baseProfile="tiny-ps" xmlns="http://www.w3.org/2000/svg" viewBox="0 0 116 32" width="116" height="32">
	<title>ACTIVITY</title>
	<style>
		tspan { white-space:pre }
		.shp0 { fill: #ffffff } 
	</style>
	<g id="ACTIVITY">
		<g id="CONTENT">
			<g id="STATS">
				<g id="INCOME">
					<g id="NUMBER">
						<path id="****" class="shp0" d="M100 4C104.42 4 108 7.58 108 12C108 16.42 104.42 20 100 20C95.58 20 92 16.42 92 12C92 7.58 95.58 4 100 4ZM72 4C76.42 4 80 7.58 80 12C80 16.42 76.42 20 72 20C67.58 20 64 16.42 64 12C64 7.58 67.58 4 72 4ZM44 4C48.42 4 52 7.58 52 12C52 16.42 48.42 20 44 20C39.58 20 36 16.42 36 12C36 7.58 39.58 4 44 4ZM16 4C20.42 4 24 7.58 24 12C24 16.42 20.42 20 16 20C11.58 20 8 16.42 8 12C8 7.58 11.58 4 16 4Z" />
					</g>
				</g>
			</g>
		</g>
	</g>
</svg>