<svg version="1.2" baseProfile="tiny-ps" xmlns="http://www.w3.org/2000/svg" viewBox="0 0 72 72" width="72" height="72">
	<title>ACCOUNT</title>
	<style>
		tspan { white-space:pre }
		.shp0 { fill: #ffffff } 
	</style>
	<g id="ACCOUNT">
		<g id="TOP">
			<g id="SEARCH">
				<path id="ZOOM" class="shp0" d="M62.79 52.69L51.24 41.15C54.02 37.14 55.42 32.66 55.42 27.72C55.42 24.52 54.79 21.45 53.55 18.52C52.3 15.59 50.62 13.07 48.5 10.95C46.38 8.83 43.86 7.14 40.93 5.9C38 4.65 34.93 4.03 31.72 4.03C28.52 4.03 25.45 4.65 22.52 5.9C19.59 7.14 17.07 8.83 14.95 10.95C12.83 13.07 11.14 15.59 9.9 18.52C8.65 21.45 8.03 24.52 8.03 27.72C8.03 30.93 8.65 34 9.9 36.93C11.14 39.86 12.83 42.38 14.95 44.5C17.07 46.62 19.59 48.3 22.52 49.55C25.45 50.79 28.52 51.42 31.72 51.42C36.66 51.42 41.14 50.02 45.15 47.24L56.69 58.75C57.5 59.6 58.51 60.03 59.72 60.03C60.89 60.03 61.9 59.6 62.75 58.75C63.6 57.9 64.03 56.89 64.03 55.72C64.03 54.53 63.62 53.52 62.79 52.69ZM42.38 38.37C39.42 41.32 35.87 42.8 31.72 42.8C27.57 42.8 24.02 41.32 21.07 38.37C18.12 35.42 16.65 31.87 16.65 27.72C16.65 23.57 18.12 20.02 21.07 17.07C24.02 14.12 27.57 12.65 31.72 12.65C35.87 12.65 39.42 14.12 42.38 17.07C45.33 20.02 46.8 23.57 46.8 27.72C46.8 31.87 45.33 35.42 42.38 38.37Z" />
			</g>
		</g>
	</g>
</svg>