<svg version="1.2" baseProfile="tiny-ps" xmlns="http://www.w3.org/2000/svg" viewBox="0 0 124 48" width="124" height="48">
	<title>ACCOUNT</title>
	<style>
		tspan { white-space:pre }
		.shp0 { fill: #ffffff } 
	</style>
	<g id="ACCOUNT">
		<g id="CONTENT">
			<g id="STATS">
				<g id="BALANCE">
					<g id="DATE">
						<path id="VISA" class="shp0" d="M86.65 6.29C86.35 8.47 85.96 10.57 85.46 12.58C83.4 11.97 81.02 11 77.66 11.2C75.65 11.32 73.28 12.02 73.25 13.66C73.21 15.47 76.51 16.55 78.34 17.34C81.64 18.78 85.19 20.68 85.46 24.56C85.68 27.54 84.15 30.14 82.41 31.63C77.79 35.58 67.53 36 60.53 33.47C60.96 31.36 61.36 29.21 61.71 27.02C64.42 28.06 68.15 29.47 72.23 29.02C74.09 28.81 76.37 27.83 76.3 26.1C76.22 23.99 71.88 22.74 69.69 21.64C67.14 20.38 64.25 18.26 64.09 15.04C63.98 12.89 64.91 10.88 66.12 9.51C69.74 5.45 79.03 4 86.65 6.29ZM46.22 34.61L51.54 5.73L60.25 5.73L54.93 34.61L46.22 34.61L46.22 34.61ZM38.94 5.67C35.94 12.07 33.38 18.86 30.29 25.18L29.38 21.39C29.38 21.37 29.37 21.36 29.37 21.34L29.52 22.02C28.85 20.02 27.71 18.14 26.25 16.42C26.21 16.38 26.17 16.33 26.13 16.29C25.88 15.99 25.61 15.7 25.33 15.41C25.17 15.24 25 15.06 24.82 14.89C22.72 12.8 20.16 11 17.46 9.57L25.2 34.54L34.53 34.54C38.92 24.8 43.67 15.37 48.1 5.67C45.05 5.67 42 5.67 38.94 5.67ZM116 34.7C113.34 34.7 110.68 34.7 108.03 34.7C107.51 33.32 107.37 31.61 106.84 30.24C103.22 30.24 99.6 30.24 95.98 30.24L93.95 34.7C90.89 34.7 87.84 34.7 84.79 34.7L96.66 9.97C97.18 8.89 98.13 7.41 98.53 6.75C99.13 5.75 101.46 5.67 102.46 5.67L109.04 5.67L116 34.7ZM102.79 13.67L98.36 24.41L105.53 24.41L102.79 13.67ZM22.06 5.87L8 5.87L8 6.48C16.09 7.9 26.31 14 28.99 21.89L25.97 8.7C25.56 6.67 23.98 5.87 22.06 5.87ZM18.06 5.87L4 5.87L4 6.48C12.09 7.9 22.31 14 24.99 21.89L21.97 8.7C21.56 6.67 19.98 5.87 18.06 5.87Z" />
					</g>
				</g>
			</g>
		</g>
	</g>
</svg>